<svg width="25" height="25" viewBox="0 0 25 25" fill="none" xmlns="http://www.w3.org/2000/svg">
<path fill-rule="evenodd" clip-rule="evenodd" d="M19.4086 13.5181L19.3223 13.3341C18.9502 12.5407 18.8415 11.7 18.8085 10.9542C18.7919 10.5784 18.7941 10.2069 18.7978 9.86547C18.7983 9.81854 18.7988 9.77229 18.7993 9.72672C18.8027 9.43203 18.8058 9.16437 18.7998 8.90656C18.7743 7.89114 18.4547 6.90245 17.8766 6.05604C17.2182 5.23901 16.358 4.5968 15.3747 4.19137L15.3577 4.18432L15.3408 4.17666C14.0099 3.57175 12.5596 3.25943 11.0914 3.26227H11.0903C9.24276 3.26378 7.47536 3.98573 6.17588 5.26323C4.87704 6.5401 4.15184 8.26687 4.15331 10.0626C4.15418 11.1273 4.464 12.3415 5.00228 13.4648C5.54182 14.5907 6.27276 15.5462 7.04224 16.1382L7.44833 16.4506L7.45213 21.0941C7.62151 21.3035 7.95041 21.5619 8.44364 21.7859C9.04719 22.06 9.6538 22.1708 10.0048 22.1419L10.0471 22.1384L10.0895 22.1383C11.1084 22.1375 11.585 21.8492 11.7901 21.6739C11.8644 21.6104 11.916 21.5506 11.9507 21.5035L11.9483 18.6205L13.2491 18.9555L13.2497 18.9557L13.2503 18.9558L13.2509 18.956L13.2572 18.9575C13.2653 18.9595 13.2792 18.9629 13.2985 18.9673C13.3372 18.9762 13.3973 18.9895 13.4759 19.0052C13.6333 19.0367 13.8625 19.0772 14.1387 19.1111C14.6995 19.1798 15.4148 19.216 16.1055 19.1141C16.802 19.0114 17.3824 18.7822 17.7814 18.3998C18.153 18.0436 18.4799 17.4473 18.479 16.3555L18.4782 15.465L19.3539 15.3265L19.3545 15.3264L19.3588 15.3256C19.3619 15.325 19.3664 15.3243 19.3721 15.3232C19.3778 15.3221 19.3848 15.3208 19.393 15.3192C19.4259 15.3127 19.4769 15.3018 19.5402 15.2861C19.6697 15.2537 19.8354 15.2045 19.9967 15.1362C20.1643 15.0654 20.2848 14.9919 20.3559 14.9292C20.3702 14.9166 20.3803 14.9064 20.3871 14.8989C20.3846 14.8709 20.3748 14.8136 20.3384 14.721C20.2814 14.5761 20.184 14.4086 20.0594 14.2355C19.9376 14.0662 19.808 13.9168 19.7071 13.8085C19.6574 13.7552 19.6166 13.7139 19.5896 13.6872C19.5828 13.6805 19.5769 13.6747 19.572 13.6699C19.5673 13.6654 19.5635 13.6618 19.5608 13.6592L19.5565 13.655L19.5559 13.6546L19.4086 13.5181ZM12.9911 19.9647C12.9911 19.9647 13.4088 20.0723 14.0329 20.1475C15.8772 20.3698 19.5239 20.3095 19.5206 16.3547C19.5206 16.3547 21.2406 16.0825 21.4141 15.0993C21.5874 14.1161 20.2654 12.8919 20.2654 12.8919C19.8154 11.9323 19.8285 10.8019 19.8409 9.74067C19.8443 9.44724 19.8477 9.15916 19.8411 8.8814C19.8104 7.64989 19.4189 6.45317 18.7133 5.43437C17.9408 4.46462 16.9281 3.70516 15.7719 3.22836C14.3045 2.56143 12.7064 2.21748 11.0894 2.2206C8.97187 2.22234 6.94172 3.04961 5.44562 4.52043C3.94949 5.99125 3.10994 7.98515 3.11164 10.0634C3.11369 12.564 4.54778 15.5334 6.40708 16.9639L6.41073 21.3878C6.93885 22.4932 8.92844 23.2758 10.0904 23.18C12.5582 23.178 12.9926 21.7529 12.9926 21.7529L12.9911 19.9647Z" fill="#391A6D"/>
<path fill-rule="evenodd" clip-rule="evenodd" d="M13.9053 10.6737C14.1602 10.6735 14.2025 10.6261 14.2836 10.5352C14.3306 10.4825 14.3906 10.4153 14.5125 10.3342C14.8502 10.5544 15.2487 10.6696 15.6553 10.6647L16.9462 10.2063C17.3098 9.91406 17.5593 9.50916 17.6529 9.05937C17.7465 8.60958 17.6784 8.14213 17.4601 7.73531C17.2419 7.32849 16.8867 7.00697 16.454 6.82458C16.3548 6.38927 16.1057 6 15.748 5.72145L14.4871 5.29317L14.3452 5.29328C14.0644 4.89539 13.6433 4.61176 13.1617 4.49629L10.9799 4.35022C10.5307 4.38691 10.1072 4.5696 9.77765 4.86889C9.62182 4.83326 9.46229 4.81486 9.30218 4.81403C8.91453 4.81512 8.53546 4.92539 8.21072 5.13151C7.88604 5.33765 7.62958 5.63083 7.47234 5.97567L6.44604 6.68437C6.19083 7.02151 6.05359 7.42947 6.05463 7.84817C6.05223 8.02328 6.0763 8.19776 6.12598 8.36604C5.85687 8.70645 5.71234 9.12463 5.71541 9.55411C5.71515 10.0522 5.91109 10.5315 6.26291 10.8933C6.29156 11.2499 6.41989 11.5921 6.634 11.8829C6.84812 12.1736 7.13989 12.4018 7.4777 12.5428C7.86697 12.7798 8.19671 13.0988 8.44265 13.4762C8.68859 13.8537 8.79031 14.28 8.84458 14.7237L10.9884 14.722L10.9867 12.6504C10.9859 12.2825 11.091 11.9219 11.2902 11.6092C11.3204 11.5618 11.3486 11.5158 11.3759 11.4712C11.5285 11.2223 11.6524 11.0199 11.9398 10.8818C12.2574 10.7632 12.5435 10.5765 12.7767 10.3356C13.1094 10.5562 13.5027 10.674 13.9053 10.6737ZM7.27874 10.6032L11.4448 9.95083L8.74062 6.95619L7.27874 10.6032ZM11.703 8.16776L12.9364 5.87599L15.2714 7.08645L14.038 9.37828L11.703 8.16776Z" fill="#391A6D"/>
<path d="M17.6969 12.4177C17.6972 12.8492 17.3478 13.1993 16.9163 13.1996C16.4848 13.1999 16.1347 12.8505 16.1344 12.419C16.1341 11.9875 16.4835 11.6374 16.915 11.6371C17.3465 11.6368 17.6966 11.9863 17.6969 12.4177Z" fill="#391A6D"/>
<path fill-rule="evenodd" clip-rule="evenodd" d="M10.9297 16.8504L8.84635 16.852L8.84552 15.8104L10.9289 15.8087L10.9297 16.8504Z" fill="#391A6D"/>
<path fill-rule="evenodd" clip-rule="evenodd" d="M10.9314 18.9338L8.84807 18.9354L8.84724 17.8938L10.9306 17.8921L10.9314 18.9338Z" fill="#391A6D"/>
<path fill-rule="evenodd" clip-rule="evenodd" d="M10.9331 21.017L8.84979 21.0187L8.84895 19.977L10.9323 19.9753L10.9331 21.017Z" fill="#391A6D"/>
</svg>
