<svg width="25" height="24" viewBox="0 0 25 24" fill="none" xmlns="http://www.w3.org/2000/svg">
<path d="M5.44337 13.9187H6.53002L6.85982 12.73H8.18592L8.54364 13.9187H9.67033L8.23424 9.28735H6.85982L5.44337 13.9187ZM7.28534 10.964C7.36096 10.6957 7.42969 10.3452 7.49856 10.0707H7.51206C7.58093 10.3452 7.66361 10.6898 7.74629 10.964L8.03498 11.9477H7.01107L7.28534 10.964Z" fill="#391A6D"/>
<path d="M12.538 10.1051C13.0459 10.1051 13.3619 10.1946 13.6163 10.3036L13.8365 9.46518C13.6097 9.35551 13.149 9.23816 12.5515 9.23816C11.0328 9.23816 9.91315 10.1173 9.90502 11.657C9.89858 12.3372 10.132 12.9413 10.5585 13.341C10.9846 13.7533 11.5959 13.9663 12.4417 13.9663C13.0522 13.9663 13.665 13.8152 13.9872 13.7053V11.2659H12.2629V12.0836H12.9784V13.052C12.8953 13.094 12.7026 13.1209 12.4623 13.1209C11.6026 13.1209 11.0055 12.5569 11.0055 11.6017C11.0055 10.5994 11.6645 10.1051 12.538 10.1051Z" fill="#391A6D"/>
<path d="M17.6673 10.1468V9.28809H14.8086V13.9186H17.7637V13.0607H15.8601V11.9611H17.5648V11.1083H15.8601V10.1468H17.6673Z" fill="#391A6D"/>
<path d="M25 14.6118L21.9918 8.59502L18.9835 14.6118H21.0097C19.7343 18.5936 16.004 21.4879 11.6029 21.4879C6.15298 21.4879 1.71848 17.0535 1.71848 11.6034C1.71848 6.15344 6.15298 1.71894 11.6029 1.71894C15.8023 1.71894 19.3899 4.3558 20.8185 8.05799L21.8063 6.08196C19.8409 2.4626 16.0049 3.39021e-09 11.6037 3.39021e-09C5.20561 -0.000153392 0 5.20515 0 11.6034C0 18.0012 5.20561 23.207 11.6036 23.207C16.9607 23.207 21.4716 19.5548 22.8009 14.6119L25 14.6118Z" fill="#391A6D"/>
</svg>
