<svg width="25" height="25" viewBox="0 0 25 25" fill="none" xmlns="http://www.w3.org/2000/svg">
<path d="M16.8219 5.01331C16.4164 -0.258569 8.44453 -0.257006 8.04688 5.02268C5.64375 5.99846 3.98047 8.31487 3.98047 11.0196C3.98047 11.075 3.98125 11.1305 3.98281 11.186V11.1782V23.4375C3.98281 23.761 4.24531 24.0235 4.56875 24.0235H20.4344C20.7578 24.0235 21.0203 23.761 21.0203 23.4375V11.1711C20.9961 8.39534 19.2875 6.02424 16.8672 5.02971L16.8227 5.01331H16.8219ZM12.4344 2.14846C12.4508 2.14846 12.4703 2.14768 12.4898 2.14768C13.3313 2.14768 14.1 2.45706 14.6898 2.96721L14.6859 2.96331C15.1328 3.37346 15.4516 3.91643 15.5813 4.52893L15.5844 4.54846C14.6586 4.26409 13.5945 4.10003 12.4914 4.10003C12.4195 4.10003 12.3484 4.10081 12.2773 4.10237H12.2883C11.2117 4.11409 10.1789 4.27815 9.20234 4.57424L9.28047 4.55393C9.61406 3.16331 10.8461 2.14612 12.3164 2.14612C12.3578 2.14612 12.3992 2.1469 12.4406 2.14846H12.4344ZM15.8203 17.3828H8.97109V15.4297H15.8203V17.3828ZM8.97109 22.8516V18.5547H15.8203V22.8516H8.97109ZM19.8469 22.8516H16.9922V14.8438C16.9922 14.5203 16.7297 14.2578 16.4063 14.2578H8.38516C8.06172 14.2578 7.79922 14.5203 7.79922 14.8438V22.8516H5.15313V11.1711C5.10547 7.17971 8.825 5.31643 12.3016 5.27424C12.3852 5.2719 12.4828 5.27034 12.5813 5.27034C13.7875 5.27034 14.9406 5.49612 16.0016 5.90784L15.9367 5.88596C16.0125 5.94221 16.1055 5.98049 16.2063 5.99221H16.2086C18.3398 6.79456 19.8305 8.81018 19.8453 11.1766V11.1782L19.8469 22.8516ZM16.4063 9.57034H8.59375C8.27031 9.57034 8.00781 9.83284 8.00781 10.1563C8.00781 10.4797 8.27031 10.7422 8.59375 10.7422H16.4063C16.7297 10.7422 16.9922 10.4797 16.9922 10.1563C16.9922 9.83284 16.7297 9.57034 16.4063 9.57034Z" fill="#391A6D"/>
</svg>
