<svg width="25" height="25" viewBox="0 0 25 25" fill="none" xmlns="http://www.w3.org/2000/svg">
<g clip-path="url(#clip0_76_37)">
<path d="M12.5671 0.991821C11.912 0.991821 11.2942 1.36707 10.8124 2.05383C10.3305 2.74055 10.0144 3.72708 10.0144 4.82483C10.0144 5.92249 10.3305 6.90754 10.8124 7.59426C11.2942 8.28108 11.912 8.65627 12.5671 8.65627C13.2223 8.65627 13.8385 8.28108 14.3204 7.59426C14.8023 6.90759 15.12 5.92258 15.12 4.82483C15.12 3.72717 14.8023 2.7406 14.3204 2.05383C13.8386 1.36711 13.2224 0.991821 12.5672 0.991821H12.5671ZM5.23071 3.09446C4.23925 3.12249 4.05903 3.77278 3.67895 4.51194C2.54135 6.72405 0.965866 12.5564 0.965866 12.5564L8.80132 12.2909L10.2234 19.0094L9.11113 24.1866H16.3911L15.3031 19.0108L16.4872 12.2969L24.179 12.5564C24.1791 12.5564 22.6037 6.724 21.4662 4.51194C21.0859 3.77268 20.9058 3.12244 19.9143 3.09446C19.0404 3.09446 18.332 3.85383 18.332 4.78967C18.332 5.72551 19.0404 6.48499 19.9143 6.48499C20.0963 6.48499 20.2687 6.44182 20.4316 6.38118L20.8191 10.0143L15.1092 8.05662C15.0953 8.07712 15.0823 8.09895 15.0681 8.11912C14.4608 8.98455 13.5737 9.56882 12.5671 9.56882C11.5605 9.56882 10.6734 8.98455 10.0662 8.11912C10.0527 8.09983 10.0398 8.07927 10.0266 8.05964L4.32588 10.0143L4.71342 6.38123C4.87636 6.44187 5.04873 6.48499 5.23076 6.48499C6.10468 6.48499 6.81308 5.72556 6.81308 4.78967C6.81308 3.85388 6.10473 3.09446 5.23081 3.09446H5.23071Z" fill="#391A6D"/>
</g>
<defs>
<clipPath id="clip0_76_37">
<rect width="25" height="25" fill="white"/>
</clipPath>
</defs>
</svg>
