<svg width="25" height="25" viewBox="0 0 25 25" fill="none" xmlns="http://www.w3.org/2000/svg">
<path d="M7.74063 3.125L3.125 8.4V21.875H21.875V8.4L17.2594 3.125H7.74063ZM7.38594 1.5625H17.6141C17.7253 1.56242 17.8352 1.58607 17.9365 1.63188C18.0378 1.67769 18.1282 1.74459 18.2016 1.82813L23.2438 7.59219C23.3684 7.73444 23.4373 7.91709 23.4375 8.10625V22.6562C23.4375 22.8635 23.3552 23.0622 23.2087 23.2087C23.0622 23.3552 22.8635 23.4375 22.6562 23.4375H2.34375C2.13655 23.4375 1.93784 23.3552 1.79132 23.2087C1.64481 23.0622 1.5625 22.8635 1.5625 22.6562V8.10625C1.56234 7.91655 1.63121 7.73328 1.75625 7.59063L6.79688 1.83125C6.87015 1.74695 6.96064 1.67934 7.06226 1.63298C7.16387 1.58662 7.27425 1.56259 7.38594 1.5625Z" fill="#391A6D"/>
<path d="M1.5625 7.8125H23.4375V9.375H1.5625V7.8125Z" fill="#391A6D"/>
<path d="M10.9375 8.00469V15.625H14.0625V8.00469L12.8438 3.125H12.1563L10.9375 8.00469ZM10.9375 1.5625H14.0625L15.625 7.8125V16.4062C15.625 16.6135 15.5427 16.8122 15.3962 16.9587C15.2497 17.1052 15.051 17.1875 14.8438 17.1875H10.1562C9.94905 17.1875 9.75034 17.1052 9.60382 16.9587C9.45731 16.8122 9.375 16.6135 9.375 16.4062V7.8125L10.9375 1.5625Z" fill="#391A6D"/>
</svg>
