<svg width="25" height="25" viewBox="0 0 25 25" fill="none" xmlns="http://www.w3.org/2000/svg">
<path d="M14.3401 17.1945C14.6319 20.3836 17.1964 20.818 17.9541 20.818C18.712 20.818 21.2765 20.3836 21.5679 17.1945C21.1018 17.7019 19.5863 18.5721 17.9541 18.5721C16.3221 18.572 14.8066 17.7018 14.3401 17.1945Z" fill="#391A6D"/>
<path d="M15.2676 13.4756C15.8687 13.5563 16.4234 13.7997 16.9078 14.1659C16.927 13.0916 16.2816 12.1599 15.4065 12.0428C14.536 11.9263 13.7499 12.6576 13.5792 13.703C14.1061 13.4829 14.6788 13.3972 15.2676 13.4756Z" fill="#391A6D"/>
<path d="M19.0004 14.1659C19.4848 13.7997 20.0397 13.5564 20.6404 13.4756C21.2296 13.3972 21.8018 13.4829 22.3289 13.703C22.1581 12.6576 21.372 11.9263 20.5017 12.0428C19.6264 12.1599 18.9809 13.0916 19.0004 14.1659Z" fill="#391A6D"/>
<path d="M24.9865 7.39522C24.9865 7.39522 24.9855 7.38211 24.9848 7.37537L24.9838 7.36906L24.9828 7.36031C24.9365 6.94383 24.6911 6.60815 24.3456 6.56462C24.0641 6.5288 23.7799 6.70729 23.5097 6.78761C22.9528 6.95111 22.3881 7.07539 21.8234 7.17994C20.3544 7.45181 18.8664 7.57754 17.3818 7.53401C16.2293 7.50062 15.076 7.37488 13.9369 7.15286C13.5121 4.96109 12.8136 1.36947 12.6157 0.351687C12.5757 0.145143 12.5459 -0.177967 12.2109 0.121466C11.9687 0.339605 9.54173 1.87447 6.43704 2.80756C3.33235 3.74065 0.609108 3.7523 0.313453 3.69669C-0.0940667 3.61928 -0.00226973 3.924 0.0380135 4.13054C0.250611 5.22421 1.03972 9.28459 1.45017 11.3936C2.45096 16.5463 6.91863 19.1719 9.46839 18.4052C10.0173 18.2403 10.5874 17.8847 11.1347 17.3768C11.6855 20.1761 13.2409 22.6528 15.2711 24.042C15.926 24.49 16.642 24.83 17.3859 24.9544C18.1151 25.0772 18.8479 24.9442 19.5412 24.6496C20.9053 24.0692 22.1127 22.9367 23.0384 21.5746C23.9408 20.2458 24.5878 18.6466 24.8535 16.9357C24.9758 16.1486 24.9925 15.3612 24.9925 14.5635V8.30943C24.9926 8.00902 25.0128 7.69411 24.9865 7.39522ZM2.98611 8.21071C3.5407 8.26972 4.11316 8.18655 4.67005 7.93793C5.23919 7.6844 5.73333 7.2863 6.13441 6.78852C6.35579 7.82658 5.90467 8.92129 5.07586 9.28987C4.25223 9.65755 3.34988 9.1767 2.98611 8.21071ZM10.9162 12.5371C10.242 12.364 9.27855 12.2948 8.33612 12.5787C6.93983 12.9981 5.78826 14.1315 5.47357 14.6849C5.1931 11.8827 7.31409 10.8519 7.96282 10.6564C8.46097 10.5064 9.916 10.3023 10.9162 11.4231V12.5371ZM11.3201 6.65022C11.2257 6.8887 11.0964 7.1035 10.937 7.28199C10.6925 7.55678 10.3802 7.74541 10.0288 7.80297C9.15604 7.94424 8.35286 7.22687 8.1681 6.17624C8.70863 6.39201 9.29339 6.46547 9.8931 6.36876C10.48 6.27344 11.0202 6.0224 11.4914 5.65478C11.5021 6.0088 11.4399 6.34842 11.3201 6.65022ZM23.8561 14.2568C23.8561 15.0283 23.864 15.7951 23.7546 16.5584C23.6602 17.2182 23.4984 17.8606 23.28 18.472C23.2773 18.4783 23.2746 18.486 23.272 18.4937C23.2713 18.4966 23.2693 18.5 23.2686 18.5044C23.2643 18.5155 23.2605 18.5271 23.2563 18.5382C23.2485 18.5609 23.2397 18.5836 23.231 18.6074C23.2333 18.5986 23.237 18.5914 23.2397 18.5822C22.6853 20.0784 21.791 21.3849 20.706 22.3257C20.1053 22.8472 19.4311 23.2724 18.7131 23.4755C18.0426 23.6671 17.3809 23.5863 16.7322 23.3116C15.3735 22.7344 14.1915 21.5015 13.3625 20.0619C12.7138 18.9348 12.2748 17.6288 12.1176 16.2627C12.0746 15.8922 12.0529 15.5159 12.0529 15.1386V8.13773C12.7498 8.35102 13.4606 8.5082 14.1739 8.62768C14.6287 8.70509 15.0858 8.76702 15.5404 8.81832C17.0635 8.98862 18.5945 8.99827 20.1184 8.84443C21.3713 8.7182 22.6337 8.51069 23.8562 8.13676V14.2568H23.8561Z" fill="#391A6D"/>
</svg>
