<svg width="25" height="25" viewBox="0 0 25 25" fill="none" xmlns="http://www.w3.org/2000/svg">
<path d="M18.0556 22.5H6.94444C5.83938 22.5 4.77957 22.1049 3.99817 21.4017C3.21676 20.6984 2.77778 19.7446 2.77778 18.75V6.25C2.77778 5.91848 2.63145 5.60054 2.37098 5.36612C2.11051 5.1317 1.75725 5 1.38889 5C1.02053 5 0.667263 5.1317 0.406796 5.36612C0.146329 5.60054 0 5.91848 0 6.25V18.75C0 20.4076 0.731645 21.9973 2.03398 23.1694C3.33632 24.3415 5.10266 25 6.94444 25H18.0556C18.4239 25 18.7772 24.8683 19.0376 24.6339C19.2981 24.3995 19.4444 24.0815 19.4444 23.75C19.4444 23.4185 19.2981 23.1005 19.0376 22.8661C18.7772 22.6317 18.4239 22.5 18.0556 22.5ZM25 8.675C24.9855 8.56017 24.9576 8.44704 24.9167 8.3375V8.225C24.8499 8.09647 24.7608 7.97833 24.6528 7.875L16.3194 0.375C16.2046 0.27777 16.0734 0.197601 15.9306 0.1375H15.8056L15.3611 0H9.72222C8.61715 0 7.55735 0.395088 6.77594 1.09835C5.99454 1.80161 5.55556 2.75544 5.55556 3.75V16.25C5.55556 17.2446 5.99454 18.1984 6.77594 18.9017C7.55735 19.6049 8.61715 20 9.72222 20H20.8333C21.9384 20 22.9982 19.6049 23.7796 18.9017C24.561 18.1984 25 17.2446 25 16.25V8.75C25 8.75 25 8.75 25 8.675ZM16.6667 4.2625L20.2639 7.5H18.0556C17.6872 7.5 17.3339 7.3683 17.0735 7.13388C16.813 6.89946 16.6667 6.58152 16.6667 6.25V4.2625ZM22.2222 16.25C22.2222 16.5815 22.0759 16.8995 21.8154 17.1339C21.555 17.3683 21.2017 17.5 20.8333 17.5H9.72222C9.35387 17.5 9.0006 17.3683 8.74013 17.1339C8.47966 16.8995 8.33333 16.5815 8.33333 16.25V3.75C8.33333 3.41848 8.47966 3.10054 8.74013 2.86612C9.0006 2.6317 9.35387 2.5 9.72222 2.5H13.8889V6.25C13.8889 7.24456 14.3279 8.19839 15.1093 8.90165C15.8907 9.60491 16.9505 10 18.0556 10H22.2222V16.25Z" fill="#545050"/>
</svg>
