<svg width="24" height="25" viewBox="0 0 24 25" fill="none" xmlns="http://www.w3.org/2000/svg">
<path d="M12.5539 8.352C11.9753 7.74712 11.2709 7.26919 10.4878 6.95894C10.118 7.38696 9.86625 7.90806 9.76111 8.4731C9.73251 8.62544 9.71536 8.77817 9.70748 8.93018C9.77184 8.95322 9.8348 8.97783 9.89634 9.00576C10.5786 9.30708 11.1644 9.81147 11.5748 10.4469C11.9045 10.955 12.1234 11.5432 12.1971 12.1805C12.2164 12.3396 12.2257 12.5016 12.2257 12.667C12.2257 13.219 12.1191 13.7391 11.9267 14.2136C11.6879 14.7988 11.3181 15.3165 10.854 15.7192C10.7553 15.806 10.6515 15.8865 10.5443 15.9621C9.93426 16.3912 9.2062 16.64 8.41162 16.64C7.88311 16.64 7.38464 16.5286 6.92836 16.3286C6.24464 16.0272 5.66105 15.5225 5.24911 14.8874C4.83858 14.253 4.5997 13.4928 4.5997 12.667C4.5997 12.1153 4.70484 11.5961 4.89792 11.1204C5.15756 10.482 5.57592 9.92476 6.10158 9.50869C6.09155 9.3645 6.08723 9.22036 6.08723 9.07622C6.08723 8.33574 6.1988 7.61309 6.41123 6.92993C5.59805 7.23799 4.86858 7.72778 4.27069 8.3521C3.2108 9.45283 2.55281 10.9849 2.55497 12.667C2.55286 14.3496 3.21084 15.8816 4.27069 16.9827C5.1532 17.9035 6.32325 18.5304 7.62487 18.7125V20.6145H4.91076V22.2526H7.62487V25H9.19828V22.2526H11.9145V20.6144H9.19828V18.7125C10.5007 18.5303 11.6721 17.9034 12.5539 16.9827C12.8486 16.6757 13.1111 16.3368 13.3392 15.9699C13.9292 15.0182 14.2718 13.881 14.2703 12.667C14.2703 12.3821 14.251 12.1001 14.2153 11.8252C14.0358 10.4767 13.4336 9.26611 12.5539 8.352Z" fill="#391A6D"/>
<path d="M16.3601 0V1.63823H18.7602L16.28 4.22183C15.2358 3.39268 13.9807 2.97358 12.7319 2.97476C11.2365 2.97358 9.73106 3.57144 8.5896 4.7627C7.77285 5.61123 7.24795 6.65303 7.01334 7.74707C7.01048 7.76045 7.00907 7.77388 7.00546 7.78506C6.99618 7.82754 6.98831 7.87036 6.98048 7.91099C6.96614 7.98994 6.95329 8.06855 6.94115 8.14712C6.93328 8.19443 6.92686 8.24399 6.92184 8.29126C6.91256 8.36318 6.90468 8.43691 6.89896 8.51064C6.8954 8.55313 6.89109 8.596 6.88898 8.63843C6.88757 8.65967 6.88612 8.68125 6.88471 8.704C6.8811 8.74683 6.8797 8.79077 6.87825 8.8332C6.87539 8.91367 6.87323 8.99561 6.87323 9.07607C6.87323 9.13828 6.87539 9.20049 6.87684 9.26416C6.8797 9.32676 6.88331 9.38857 6.88612 9.45269L6.8954 9.59048C6.8954 9.61323 6.89896 9.63628 6.90037 9.66089C7.02628 11.0219 7.59051 12.3525 8.5896 13.3914C9.19467 14.022 9.90267 14.4869 10.6558 14.7837C10.8839 14.5219 11.0699 14.2187 11.2036 13.8924C11.3416 13.5501 11.4203 13.188 11.436 12.8144C10.9247 12.6229 10.4469 12.3149 10.035 11.8858C9.66239 11.4958 9.38348 11.05 9.19823 10.5716C9.06595 10.2337 8.98082 9.87993 8.9436 9.52305C8.91932 9.31182 8.9136 9.09878 8.92289 8.8876C8.92575 8.83506 8.92931 8.78442 8.93217 8.7334C8.93573 8.6958 8.93859 8.65815 8.94501 8.62017C8.94501 8.60562 8.94787 8.59111 8.94932 8.57622C8.95289 8.54009 8.9572 8.50249 8.96362 8.4667C8.9715 8.41753 8.97937 8.3665 8.98865 8.31772C9.03009 8.09458 9.08948 7.8752 9.16814 7.66211C9.18248 7.623 9.19673 7.5854 9.21393 7.5459C9.22968 7.50493 9.24679 7.46396 9.2654 7.423C9.28115 7.38203 9.29976 7.34102 9.32048 7.30156C9.33764 7.26099 9.35836 7.22148 9.38057 7.18237C9.48426 6.98198 9.60661 6.78906 9.74676 6.60537C9.77536 6.56777 9.8054 6.53018 9.83475 6.49399C9.89981 6.41689 9.96562 6.34165 10.0364 6.26792C10.1243 6.17627 10.2138 6.09097 10.3067 6.01235C10.6114 5.74863 10.9454 5.54189 11.2958 5.39478C11.9831 5.10464 12.7397 5.03086 13.4614 5.17686C14.1837 5.32285 14.8674 5.68271 15.4296 6.26787C15.8036 6.65786 16.0804 7.10371 16.2656 7.58164C16.546 8.29756 16.6168 9.08423 16.4766 9.83633C16.335 10.588 15.9888 11.3006 15.4296 11.8858C15.3066 12.0135 15.1778 12.1316 15.0441 12.2363C15.0519 12.3804 15.0562 12.5246 15.0562 12.6668C15.0584 13.401 14.9461 14.1248 14.7308 14.8131C15.514 14.5181 16.2484 14.0432 16.8742 13.3913C18.0164 12.2035 18.5921 10.6353 18.5907 9.07603C18.5921 7.7749 18.1895 6.46973 17.392 5.38018L19.8723 2.79658V5.29785H21.4449V0H16.3601Z" fill="#391A6D"/>
</svg>
