<svg width="25" height="25" viewBox="0 0 25 25" fill="none" xmlns="http://www.w3.org/2000/svg">
<path d="M19.2708 9.37498H17.1875M17.1875 9.37498H15.1042M17.1875 9.37498V7.29163M17.1875 9.37498V11.4583" stroke="#391A6D" stroke-width="4" stroke-linecap="round"/>
<path d="M12.5 5.80637L11.9294 6.33994C12.0771 6.49794 12.2836 6.58762 12.5 6.58762C12.7164 6.58762 12.9229 6.49794 13.0706 6.33994L12.5 5.80637ZM2.76208 14.2522C2.98537 14.6215 3.46568 14.7397 3.83488 14.5164C4.20408 14.2931 4.32236 13.8128 4.09907 13.4436L2.76208 14.2522ZM6.80972 16.8445C6.50871 16.5353 6.01409 16.5287 5.70496 16.8298C5.39584 17.1307 5.38926 17.6254 5.69028 17.9345L6.80972 16.8445ZM2.86459 9.70572C2.86459 6.68009 4.18507 4.80969 5.81877 4.16998C7.44888 3.53169 9.72958 3.98726 11.9294 6.33994L13.0706 5.27279C10.5831 2.61232 7.65546 1.77277 5.24907 2.71504C2.84627 3.6559 1.30209 6.24175 1.30209 9.70572H2.86459ZM16.1572 20.7927C17.7118 19.5311 19.5744 17.8404 21.0549 15.9521C22.5204 14.0829 23.6979 11.9119 23.6979 9.70569H22.1354C22.1354 11.3843 21.2195 13.2098 19.8253 14.9879C18.4463 16.7469 16.6829 18.3538 15.1726 19.5795L16.1572 20.7927ZM23.6979 9.70569C23.6979 6.24174 22.1538 3.65589 19.7509 2.71504C17.3446 1.77277 14.4169 2.61232 11.9294 5.27279L13.0706 6.33994C15.2704 3.98726 17.5511 3.53168 19.1813 4.16998C20.8149 4.80968 22.1354 6.68006 22.1354 9.70569H23.6979ZM8.84286 20.7927C10.1673 21.8675 11.0857 22.6562 12.5 22.6562V21.0937C11.747 21.0937 11.278 20.7566 9.82742 19.5795L8.84286 20.7927ZM15.1726 19.5795C13.722 20.7566 13.253 21.0937 12.5 21.0937V22.6562C13.9143 22.6562 14.8327 21.8675 16.1572 20.7927L15.1726 19.5795ZM4.09907 13.4436C3.32095 12.1571 2.86459 10.8906 2.86459 9.70572H1.30209C1.30209 11.2809 1.90257 12.8311 2.76208 14.2522L4.09907 13.4436ZM9.82742 19.5795C8.8722 18.8043 7.81139 17.8731 6.80972 16.8445L5.69028 17.9345C6.74529 19.0179 7.85413 19.9904 8.84286 20.7927L9.82742 19.5795Z" fill="#391A6D"/>
</svg>
