<svg width="25" height="22" viewBox="0 0 25 22" fill="none" xmlns="http://www.w3.org/2000/svg">
<path d="M12.5 20.5126L1.94162 11.2719C0.698422 10.1838 0 8.7081 0 7.16936V6.90913C0 3.84861 2.83484 1.36755 6.33178 1.36755C8.03925 1.36755 9.66453 1.97055 10.8486 3.02551L9.14973 8.57442L12.1613 11.2101L11.1024 13.0635L13.8975 14.2866L15.9636 10.67L12.7251 7.83571L15.2257 2.2581C16.2394 1.6835 17.4323 1.36755 18.6683 1.36755C22.1652 1.36755 25 3.84861 25 6.90913V7.16936C25 8.7081 24.3016 10.1838 23.0584 11.2719L12.5 20.5126Z" fill="#391A6D"/>
</svg>
