<svg width="25" height="25" viewBox="0 0 25 25" fill="none" xmlns="http://www.w3.org/2000/svg">
<path d="M21.8321 9.89968L20.4686 6.53206C20.4039 6.37288 20.3058 6.22442 20.1927 6.08526L20.3099 5.08676C20.3224 4.97831 20.2667 4.87311 20.1695 4.82328C20.0722 4.77301 19.9541 4.78872 19.8735 4.86194L19.196 5.47711C18.5674 5.34618 17.8908 5.55816 17.4627 6.09349C17.3639 6.2178 17.2932 6.35333 17.2333 6.49295C17.5118 6.7548 17.7088 7.10519 17.7595 7.51378C17.8742 8.4474 17.21 9.29648 16.2773 9.41124L15.8317 9.46617L15.1093 11.0419C15.3287 11.5236 15.3554 12.0889 15.1267 12.6077L13.5714 16.1328H14.8242L17.51 20.4876C17.6888 20.7777 18.0438 20.9294 18.3905 20.836C18.812 20.7216 19.0613 20.2868 18.9466 19.865L17.4105 14.195L19.3865 9.88432L20.5769 10.8357C20.798 11.0115 21.1057 11.0673 21.3858 10.9538C21.8005 10.7858 21.9999 10.314 21.8321 9.89968Z" fill="#391A6D"/>
<path d="M9.87956 16.1328C9.75894 15.716 9.77052 15.2587 9.9592 14.8306L10.9061 12.685C10.6036 12.5229 9.70907 12.0486 9.41392 11.8765H7.57502C7.26997 11.8765 6.98158 11.943 6.71963 12.0586C6.5077 11.0813 5.93492 9.52098 4.39528 8.95862C4.39528 8.95862 2.72774 10.1029 3.18904 11.9118C3.18904 11.9118 4.99468 12.2131 5.85584 12.7588C5.60157 13.1097 5.44689 13.5378 5.44689 14.0045C5.44689 14.0653 5.45937 14.1222 5.46442 14.1817L3.92483 19.8649C3.83585 20.1945 3.96723 20.5574 4.27309 20.7453C4.64475 20.9747 5.13183 20.8596 5.36139 20.4875L8.04719 16.1327H9.87956V16.1328Z" fill="#391A6D"/>
<path d="M13.5056 16.6648H13.2819C12.7591 17.4383 11.7948 17.7334 10.9386 17.356C10.5927 17.2031 10.3176 16.9582 10.1222 16.6648H9.28435C8.81375 16.6648 8.43304 17.0459 8.43304 17.516C8.43304 17.9861 8.81375 18.3673 9.28435 18.3673H13.5056C13.9762 18.3673 14.3569 17.9861 14.3569 17.516C14.3569 17.0459 13.9762 16.6648 13.5056 16.6648Z" fill="#391A6D"/>
<path d="M13.5056 18.793H9.28435C8.81375 18.793 8.43304 19.1742 8.43304 19.6443C8.43304 20.1143 8.81375 20.4955 9.28435 20.4955H13.5056C13.9762 20.4955 14.3569 20.1143 14.3569 19.6443C14.3569 19.1742 13.9762 18.793 13.5056 18.793Z" fill="#391A6D"/>
<path d="M15.3811 23.1968C15.0785 22.7495 14.5738 22.4815 14.0343 22.4815H13.9487C14.189 22.331 14.3569 22.0766 14.3569 21.7724C14.3569 21.3024 13.9762 20.9211 13.5056 20.9211H9.28435C8.81375 20.9211 8.43305 21.3024 8.43305 21.7724C8.43305 22.0767 8.60091 22.331 8.84119 22.4815H8.75478C8.21526 22.4815 7.71065 22.7496 7.40807 23.1968L6.79871 24.0988C6.679 24.2759 6.66652 24.5045 6.76707 24.6932C6.86687 24.8819 7.06309 25 7.27749 25H15.5115C15.7252 25 15.9222 24.8819 16.022 24.6932C16.1227 24.5046 16.11 24.2759 15.9904 24.0988L15.3811 23.1968Z" fill="#391A6D"/>
<path d="M14.258 3.95544C15.3454 3.82168 16.1202 2.83111 15.9863 1.74297C15.8525 0.654825 14.8607 -0.118762 13.7733 0.0150454C12.686 0.148499 11.9121 1.13937 12.0459 2.22762C12.1797 3.31576 13.1706 4.08925 14.258 3.95544Z" fill="#391A6D"/>
<path d="M9.78725 11.3615L11.7283 12.4015L10.5437 15.0882C10.2586 15.7335 10.5512 16.4873 11.1964 16.772C11.8464 17.0584 12.5978 16.7586 12.8797 16.119L14.5423 12.3499C14.8115 11.7393 14.5656 11.024 13.977 10.7089L12.2895 9.8048C12.5031 9.02293 12.4358 9.26907 12.5962 8.68462C12.7958 8.94481 13.0992 9.10484 13.4283 9.10484C13.5339 9.10484 16.0935 8.78518 16.1982 8.77229C16.7785 8.70124 17.1916 8.17299 17.1201 7.59228C17.0487 7.01122 16.5084 6.59641 15.9406 6.67084L14.0053 6.90859L13.3858 5.8024L13.4133 5.70276C13.6452 4.85681 13.1481 3.98312 12.3019 3.75123C11.4573 3.51969 10.582 4.01728 10.3508 4.86307C9.89604 6.52364 9.42716 8.23236 9.0656 9.55204C8.86206 10.2933 9.25262 11.0765 9.78725 11.3615Z" fill="#391A6D"/>
</svg>
