<svg width="20" height="30" viewBox="0 0 20 30" fill="none" xmlns="http://www.w3.org/2000/svg">
<path d="M19.2308 16.5V15H18.4615V14.25H17.6923V13.5H16.9231V12.75H15.3846V12H14.6154V11.25H15.3846V10.5H16.1538V9H16.9231V4.5H16.1538V3H15.3846V2.25H14.6154V1.5H13.8462V0.75H12.3077V0H7.69231V0.75H6.15385V1.5H5.38462V2.25H4.61538V3H3.84615V4.5H3.07692V9H3.84615V10.5H4.61538V11.25H5.38462V12H4.61538V12.75H3.07692V13.5H2.30769V14.25H1.53846V15H0.769231V16.5H0V29.25H0.769231V30H19.2308V29.25H20V16.5H19.2308ZM4.61538 8.25V5.25H5.38462V3.75H6.15385V3H6.92308V2.25H8.46154V1.5H11.5385V2.25H13.0769V3H13.8462V3.75H14.6154V5.25H15.3846V8.25H14.6154V9.75H13.8462V10.5H13.0769V11.25H11.5385V12H8.46154V11.25H6.92308V10.5H6.15385V9.75H5.38462V8.25H4.61538ZM18.4615 28.5H1.53846V17.25H2.30769V15.75H3.07692V15H3.84615V14.25H5.38462V13.5H14.6154V14.25H16.1538V15H16.9231V15.75H17.6923V17.25H18.4615V28.5Z" fill="#8C67F2"/>
</svg>
