<svg width="25" height="25" viewBox="0 0 25 25" fill="none" xmlns="http://www.w3.org/2000/svg">
<g clip-path="url(#clip0_76_76)">
<path d="M12.1449 25.2805C10.7244 25.2805 9.33949 24.5193 8.16761 23.8783C6.46306 22.9568 5.68182 22.5962 5.14914 23.3174C4.0838 24.6796 2.62784 24.8799 1.24289 23.8783C0.710224 23.4776 0.35511 22.8366 0.284087 22.0754C0.248576 21.835 0.284087 21.6347 0.284087 21.4344C0.426133 20.4328 0.958803 17.0273 2.09517 14.7437C2.2017 14.5433 2.27272 14.3831 2.34375 14.1828C3.08949 12.3398 3.26704 10.4167 3.26704 9.85585C3.26704 9.73566 3.26704 9.69559 3.26704 9.69559C3.26704 4.16675 7.24431 -0.320435 12.1449 -0.320435C14.5241 -0.320435 16.7258 0.721232 18.4304 2.60424C20.0994 4.48726 21.0227 6.97123 21.0227 9.61546L21.0582 9.85585C21.3423 11.819 21.6974 13.4616 22.017 14.2228C22.0881 14.343 22.1236 14.4632 22.1591 14.5033C22.7983 15.4648 23.473 18.5498 23.9702 20.9937C24.0767 21.5145 24.0767 22.0754 23.9702 22.5962C23.8991 22.9568 23.7926 23.1571 23.6506 23.3174C23.0824 24.0385 21.5554 24.8398 19.3537 23.3975C18.3594 22.7565 17.4006 23.1972 15.9446 23.9584C14.8437 24.6395 13.6008 25.2805 12.1449 25.2805ZM5.82386 21.3542C6.78267 21.3542 7.84801 21.9151 8.80682 22.476C9.90767 23.077 11.044 23.718 12.1804 23.718C13.3168 23.718 14.3466 23.1571 15.3409 22.6363C16.8324 21.835 18.3949 20.9937 20.0994 22.1155C21.6974 23.1571 22.4432 22.5562 22.6207 22.3558C22.6562 22.0754 22.6562 21.795 22.6207 21.4744C22.017 18.4296 21.4133 16.1459 21.0582 15.585C20.9517 15.4248 20.8807 15.2645 20.7741 15.0241C20.2415 13.7821 19.8864 11.4584 19.7088 10.2164L19.6733 9.89591C19.6733 9.85585 19.6733 9.81578 19.6733 9.77572C19.6733 7.53213 18.892 5.40873 17.4716 3.84623C16.0511 2.24367 14.2045 1.40232 12.2159 1.40232C8.09659 1.40232 4.75852 5.16835 4.75852 9.81578C4.75852 9.81578 4.75852 9.89591 4.75852 10.0562C4.72301 10.8575 4.54545 12.9408 3.69318 14.944C3.58664 15.1844 3.48011 15.4248 3.40909 15.6251C2.27272 17.6683 1.77556 21.0337 1.66903 21.7148C1.66903 21.795 1.66903 21.835 1.66903 21.9151C1.70454 22.1956 1.81108 22.3959 2.02414 22.5562C3.05397 23.3174 3.69318 22.7565 4.0838 22.2357C4.58096 21.5946 5.18466 21.3542 5.82386 21.3542ZM10.7955 11.8591C10.6179 11.8591 10.4403 11.7789 10.2983 11.6187C10.2983 11.6187 9.83664 11.178 8.87784 11.218C7.8125 11.2581 7.31534 11.6587 7.31534 11.6587C7.10227 11.819 6.81818 11.8591 6.5696 11.7389C6.32102 11.6187 6.17897 11.3382 6.17897 11.0177V8.89431C6.17897 7.25168 7.38636 5.8895 8.84233 5.8895C9.55255 5.8895 10.2273 6.21001 10.7244 6.77091C11.2216 7.33181 11.5057 8.09303 11.5057 8.89431V11.0177C11.5057 11.3382 11.3281 11.6187 11.0795 11.7389C10.973 11.8591 10.8665 11.8591 10.7955 11.8591ZM8.84233 7.53213C8.16761 7.53213 7.59943 8.17316 7.59943 8.93437V9.85585C7.91903 9.77572 8.34517 9.69559 8.80682 9.65553C9.30397 9.61546 9.73011 9.69559 10.0852 9.81578V8.93437C10.0852 8.5738 9.94318 8.21322 9.73011 7.93277C9.48153 7.65232 9.16193 7.53213 8.84233 7.53213ZM17.4716 11.8591C17.294 11.8591 17.1165 11.7789 16.9744 11.6187C16.9744 11.6187 16.5128 11.178 15.554 11.218C14.4886 11.2982 13.9915 11.6988 13.9915 11.6988C13.7784 11.8591 13.4943 11.8991 13.2457 11.7789C12.9972 11.6587 12.8551 11.3783 12.8551 11.0578V8.93437C12.8551 7.29174 14.0625 5.92957 15.5185 5.92957C16.2287 5.92957 16.9034 6.25008 17.4006 6.81098C17.8977 7.37187 18.1818 8.13309 18.1818 8.93437V11.0578C18.1818 11.3783 18.0043 11.6587 17.7557 11.7789C17.6491 11.8591 17.5781 11.8591 17.4716 11.8591ZM15.5185 7.53213C14.8437 7.53213 14.2756 8.17316 14.2756 8.93437V9.85585C14.5952 9.77572 15.0213 9.69559 15.483 9.65553C15.9801 9.61546 16.4062 9.69559 16.7614 9.81578V8.93437C16.7614 8.5738 16.6193 8.21322 16.4062 7.93277C16.1577 7.65232 15.8381 7.53213 15.5185 7.53213ZM12.1449 19.1107C10.973 19.1107 10.0142 17.8286 10.0142 16.2661C10.0142 14.7036 10.973 13.4216 12.1449 13.4216C13.3168 13.4216 14.2756 14.7036 14.2756 16.2661C14.2756 17.8286 13.3168 19.1107 12.1449 19.1107ZM12.1449 15.0241C11.8253 15.0241 11.4347 15.545 11.4347 16.2661C11.4347 16.9873 11.7898 17.5081 12.1449 17.5081C12.4645 17.5081 12.8551 16.9873 12.8551 16.2661C12.8551 15.545 12.4645 15.0241 12.1449 15.0241ZM2.98295 15.3446C2.80539 15.3446 2.62784 15.2645 2.48579 15.1042L0.319599 12.6603C-0.674719 11.5385 -0.674719 9.77572 0.319599 8.65393C0.781247 8.13309 1.42045 7.81258 2.09517 7.81258C2.76988 7.81258 3.37358 8.09303 3.87074 8.65393L4.50994 9.37508C4.65199 9.53534 4.72301 9.77572 4.72301 9.97604C4.6875 10.7773 4.50994 12.8206 3.65767 14.8639C3.55113 15.1042 3.37358 15.2645 3.125 15.3046C3.05397 15.3446 3.01846 15.3446 2.98295 15.3446ZM2.09517 9.45521C1.81108 9.45521 1.52698 9.5754 1.31392 9.81578C0.88778 10.2966 0.88778 11.0578 1.31392 11.5385L2.73437 13.1411C3.08949 11.9792 3.19602 10.8975 3.26704 10.2565L2.87642 9.81578C2.62784 9.5754 2.37926 9.45521 2.09517 9.45521ZM21.3778 15.4248C21.3423 15.4248 21.3068 15.4248 21.2713 15.4248C21.0582 15.3847 20.8452 15.2244 20.7386 14.9841C20.206 13.7421 19.8508 11.4183 19.6733 10.1764C19.6378 9.93598 19.7088 9.65553 19.8864 9.49527L20.5966 8.69399C21.0582 8.17316 21.6974 7.85264 22.3722 7.85264C23.0469 7.85264 23.6861 8.13309 24.1477 8.69399C25.142 9.81578 25.142 11.5786 24.1477 12.7004L21.9105 15.2645C21.733 15.3446 21.5554 15.4248 21.3778 15.4248ZM21.1293 10.3366C21.3068 11.4584 21.4844 12.42 21.6619 13.1812L23.1179 11.5385C23.544 11.0578 23.544 10.2966 23.1179 9.81578C22.6918 9.33501 21.9815 9.33501 21.5909 9.81578L21.1293 10.3366Z" fill="#391A6D" stroke="#391A6D" stroke-width="0.000533333"/>
</g>
<defs>
<clipPath id="clip0_76_76">
<rect width="25" height="25" fill="white"/>
</clipPath>
</defs>
</svg>
