<svg width="20" height="30" viewBox="0 0 20 30" fill="none" xmlns="http://www.w3.org/2000/svg">
<path d="M0.419042 30H19.581C19.695 29.9969 19.8031 29.9544 19.8815 29.8816C19.96 29.8088 20.0026 29.7117 19.9999 29.6114V25.8458C20.0007 25.7974 19.9904 25.7494 19.9696 25.7046C19.9488 25.6598 19.9179 25.6192 19.8787 25.5851C19.8396 25.5511 19.7931 25.5243 19.7419 25.5064C19.6907 25.4886 19.636 25.48 19.581 25.4812H18.7856V22.3494C18.7901 20.7193 18.2066 19.1299 17.1189 17.8095C16.0311 16.489 14.4951 15.5054 12.7314 15C14.4948 14.4942 16.0306 13.5105 17.1183 12.1901C18.2059 10.8698 18.7897 9.28058 18.7856 7.65063V4.51883H19.581C19.636 4.52001 19.6907 4.51141 19.7419 4.49355C19.7931 4.47569 19.8396 4.44894 19.8787 4.41489C19.9179 4.38085 19.9488 4.34022 19.9696 4.29543C19.9904 4.25064 20.0007 4.20262 19.9999 4.15425V0.388556C20.0026 0.288319 19.96 0.191219 19.8815 0.11843C19.8031 0.0456419 19.695 0.00307053 19.581 0H0.419042C0.304986 0.00307053 0.196938 0.0456419 0.118461 0.11843C0.0399843 0.191219 -0.00255547 0.288319 0.000118879 0.388556V4.15425C-0.000695584 4.20262 0.00961402 4.25064 0.0304296 4.29543C0.0512451 4.34022 0.0821377 4.38085 0.121256 4.41489C0.160375 4.44894 0.206914 4.47569 0.258084 4.49355C0.309253 4.51141 0.364 4.52001 0.419042 4.51883H1.21439V7.65063C1.20985 9.28069 1.79336 10.8701 2.88112 12.1905C3.96887 13.511 5.5049 14.4946 7.2686 15C5.50516 15.5058 3.96941 16.4895 2.88173 17.8099C1.79405 19.1302 1.21035 20.7194 1.21439 22.3494V25.4812H0.419042C0.364 25.48 0.309253 25.4886 0.258084 25.5064C0.206914 25.5243 0.160375 25.5511 0.121256 25.5851C0.0821377 25.6192 0.0512451 25.6598 0.0304296 25.7046C0.00961402 25.7494 -0.000695584 25.7974 0.000118879 25.8458V29.6114C-0.00255547 29.7117 0.0399843 29.8088 0.118461 29.8816C0.196938 29.9544 0.304986 29.9969 0.419042 30ZM0.857251 0.753138H19.1427V3.76569H0.857251V0.753138ZM4.38685 12.5858C3.64865 11.9386 3.06391 11.1692 2.66648 10.322C2.26905 9.47491 2.06683 8.56691 2.07152 7.65063V4.51883H17.9285V7.65063C17.9285 9.02916 17.4635 10.3768 16.5922 11.5232C15.7209 12.6696 14.4824 13.5633 13.0332 14.0915C11.5841 14.6196 9.98923 14.7585 8.45027 14.4905C6.91131 14.2226 5.49727 13.5597 4.38685 12.5858ZM4.38328 17.4142C5.48833 16.4412 6.89604 15.7769 8.42948 15.5049C9.96293 15.2328 11.5537 15.3651 13.0018 15.8851C14.4499 16.4051 15.6908 17.2896 16.5685 18.4275C17.4462 19.5654 17.9215 20.9058 17.9348 22.2803H2.06524C2.07742 20.4532 2.91056 18.7042 4.38328 17.4142ZM2.07152 23.0335H17.9285V25.4812H2.07152V23.0335ZM0.857251 26.2343H19.1427V29.2469H0.857251V26.2343Z" fill="#8C67F2"/>
</svg>
