<svg width="64" height="64" viewBox="0 0 64 64" fill="none" xmlns="http://www.w3.org/2000/svg">
<path d="M54.0896 59.6935H50.2792L50.2787 52.8931C50.2787 46.0753 46.5383 39.8074 39.7465 35.2444C38.8872 34.6665 38.3532 33.4235 38.3532 32.0002C38.3532 30.5769 38.8872 29.334 39.7461 28.7565C46.5383 24.1929 50.2787 17.9252 50.2792 11.1071V4.30653H54.0896C55.2787 4.30653 56.2428 3.34222 56.2428 2.15316C56.2428 0.964094 55.2785 0 54.0896 0H9.91024C8.72117 0 7.75708 0.96431 7.75708 2.15316C7.75708 3.34244 8.72139 4.30653 9.91024 4.30653H13.7207V11.1069C13.7207 17.9254 17.4609 24.1931 24.2527 28.756C25.1123 29.3338 25.6463 30.5765 25.6463 32C25.6463 33.4235 25.1123 34.6662 24.2529 35.2437C17.4609 39.8071 13.7207 46.0748 13.7207 52.8929V59.6933H9.91024C8.72117 59.6933 7.75708 60.6576 7.75708 61.8466C7.75708 63.0359 8.72139 63.9998 9.91024 63.9998H54.0896C55.2787 63.9998 56.2428 63.0357 56.2428 61.8466C56.2428 60.6576 55.2785 59.6935 54.0896 59.6935ZM18.027 52.8929C18.027 45.6902 23.4326 40.9831 26.6548 38.8185C28.7198 37.4305 29.9526 34.8817 29.9526 32C29.9526 29.1183 28.7198 26.5697 26.6545 25.1815C23.4326 23.0167 18.027 18.3096 18.027 11.1069V4.30653H45.9728L45.9724 11.1069C45.9724 18.3094 40.5667 23.0167 37.344 25.182C35.2795 26.5699 34.0469 29.1187 34.0469 32C34.0469 34.8813 35.2795 37.4299 37.3445 38.8185C40.5667 40.9835 45.9724 45.6908 45.9728 52.8929V59.6933H45.2591C43.4889 53.0392 34.455 45.807 33.3261 44.9243C32.5468 44.3149 31.4526 44.3154 30.6736 44.9243C29.5447 45.8068 20.5105 53.0392 18.7403 59.6933H18.0268L18.027 52.8929ZM40.7343 59.6935H23.2653C24.6841 56.3769 28.7351 52.1787 31.9999 49.4018C35.265 52.1787 39.3158 56.3769 40.7343 59.6935Z" fill="#FFFDFD"/>
<path d="M31.9993 41.1613C32.5657 41.1613 33.1212 40.9309 33.5216 40.5303C33.9241 40.13 34.1525 39.5742 34.1525 39.0081C34.1525 38.4421 33.9241 37.8863 33.5216 37.4857C33.1212 37.0856 32.5657 36.855 31.9993 36.855C31.433 36.855 30.8775 37.0853 30.4771 37.4857C30.0765 37.8863 29.8462 38.4421 29.8462 39.0081C29.8462 39.5742 30.0763 40.13 30.4771 40.5303C30.8775 40.9307 31.433 41.1613 31.9993 41.1613Z" fill="#FFFDFD"/>
<path d="M31.9998 29.7415C33.1891 29.7415 34.153 28.7774 34.153 27.5883V23.7819C34.153 22.5928 33.1889 21.6285 31.9998 21.6285C30.8108 21.6285 29.8467 22.5928 29.8467 23.7819V27.5883C29.8467 28.7774 30.8106 29.7415 31.9998 29.7415Z" fill="#FFFDFD"/>
</svg>
